<svg width="121" height="57" viewBox="0 0 121 57" fill="none" xmlns="http://www.w3.org/2000/svg">
<line x1="48.5" y1="2.5" x2="115.507" y2="2.5" stroke="white" stroke-width="5" stroke-linecap="round"/>
<line x1="48.5" y1="54" x2="115.507" y2="54" stroke="white" stroke-width="5" stroke-linecap="round"/>
<path d="M30.752 20.56H34.424L37.184 34.024L40.04 20.56H43.616L43.976 40H41.336L41.048 26.488L38.288 40H36.152L33.344 26.44L33.08 40H30.416L30.752 20.56ZM46.8468 20.56H55.0068V23.056H50.3748V28.648H54.0228V31.12H50.3748V37.576H55.0548V40H46.8468V20.56ZM57.1124 20.56H59.5844L64.3124 31.648V20.56H67.2404V40H64.8884L60.1364 28.384V40H57.1124V20.56ZM75.5186 40.264C74.1106 40.264 73.0066 40.008 72.2066 39.496C71.4066 38.984 70.8466 38.256 70.5266 37.312C70.2066 36.368 70.0466 35.168 70.0466 33.712V20.56H73.5026V34.12C73.5026 35.24 73.6306 36.104 73.8866 36.712C74.1586 37.32 74.7026 37.624 75.5186 37.624C76.3506 37.624 76.8946 37.32 77.1506 36.712C77.4226 36.104 77.5586 35.24 77.5586 34.12V20.56H80.9906V33.712C80.9906 35.152 80.8306 36.352 80.5106 37.312C80.1906 38.256 79.6306 38.984 78.8306 39.496C78.0306 40.008 76.9266 40.264 75.5186 40.264Z" fill="white"/>
</svg>
