<svg width="48" height="48" viewBox="0 0 48 48" fill="none" xmlns="http://www.w3.org/2000/svg">
<path d="M0 24C0 10.7452 10.7452 0 24 0C37.2548 0 48 10.7452 48 24C48 37.2548 37.2548 48 24 48C10.7452 48 0 37.2548 0 24Z" fill="white"/>
<mask id="mask0_280_1566" style="mask-type:alpha" maskUnits="userSpaceOnUse" x="0" y="0" width="48" height="48">
<path fill-rule="evenodd" clip-rule="evenodd" d="M0 24C0 10.7452 10.7452 0 24 0C37.2548 0 48 10.7452 48 24C48 37.2548 37.2548 48 24 48C10.7452 48 0 37.2548 0 24Z" fill="white"/>
</mask>
<g mask="url(#mask0_280_1566)">
<path fill-rule="evenodd" clip-rule="evenodd" d="M20.7999 24.0001C20.7999 23.1209 21.4326 22.4001 22.234 22.4001C23.0354 22.4001 23.6822 23.1209 23.6681 24.0001C23.6681 24.8794 23.0354 25.6001 22.234 25.6001C21.4467 25.6001 20.7999 24.8794 20.7999 24.0001ZM25.9317 24.0001C25.9317 23.1209 26.5644 22.4001 27.3658 22.4001C28.1672 22.4001 28.7999 23.1209 28.7999 24.0001C28.7999 24.8794 28.1672 25.6001 27.3658 25.6001C26.5785 25.6001 25.9317 24.8794 25.9317 24.0001Z" fill="#4286F5"/>
<path fill-rule="evenodd" clip-rule="evenodd" d="M14.9051 10.4001H33.8949C35.4962 10.4001 36.8 11.6881 36.8 13.2841V38.4002L33.7531 35.7402L32.0384 34.1721L30.2245 32.5061L30.9755 35.0961H14.9051C13.3038 35.0961 12 33.8081 12 32.2121V13.2841C12 11.6881 13.3038 10.4001 14.9051 10.4001ZM27.4893 27.5501C27.9145 28.0821 28.4247 28.6841 28.4247 28.6841C31.5565 28.5861 32.7611 26.5561 32.7611 26.5561C32.7611 22.0481 30.7204 18.3941 30.7204 18.3941C28.6797 16.8821 26.7383 16.9241 26.7383 16.9241L26.5399 17.1481C28.949 17.8761 30.0685 18.9261 30.0685 18.9261C28.5947 18.1281 27.1492 17.7361 25.8029 17.5821C24.7826 17.4701 23.8048 17.4981 22.9403 17.6101C22.8661 17.6101 22.8027 17.6208 22.7312 17.6328C22.7208 17.6345 22.7102 17.6363 22.6994 17.6381C22.2034 17.6801 20.9988 17.8621 19.4825 18.5201C18.9581 18.7581 18.6464 18.9261 18.6464 18.9261C18.6464 18.9261 19.8226 17.8201 22.3735 17.0921L22.2317 16.9241C22.2317 16.9241 20.2903 16.8821 18.2496 18.3941C18.2496 18.3941 16.2089 22.0481 16.2089 26.5561C16.2089 26.5561 17.3993 28.5861 20.5312 28.6841C20.5312 28.6841 21.0555 28.0541 21.4807 27.5221C19.6809 26.9901 19.0007 25.8701 19.0007 25.8701C19.0007 25.8701 19.1424 25.9681 19.3975 26.1081C19.4116 26.1221 19.4258 26.1361 19.4541 26.1501C19.4754 26.1641 19.4967 26.1746 19.5179 26.1851C19.5392 26.1956 19.5604 26.2061 19.5817 26.2201C19.936 26.4161 20.2903 26.5701 20.6162 26.6961C21.1972 26.9201 21.8916 27.1441 22.6994 27.2981C23.7623 27.4941 25.0093 27.5641 26.3698 27.3121C27.0359 27.2001 27.7161 27.0041 28.4247 26.7101C28.9207 26.5281 29.4733 26.2621 30.0544 25.8841C30.0544 25.8841 29.3458 27.0321 27.4893 27.5501Z" fill="#4286F5"/>
</g>
</svg>
