<svg width="48" height="49" viewBox="0 0 48 49" fill="none" xmlns="http://www.w3.org/2000/svg">
<circle cx="24" cy="25" r="24" fill="#109D58"/>
<path d="M24.0002 0C10.747 0 0 11.0169 0 24.6076C0 35.4799 6.87679 44.7039 16.4128 47.9577C17.6123 48.1855 18.0526 47.4239 18.0526 46.7739C18.0526 46.1872 18.0304 44.2487 18.02 42.1925C11.3431 43.6811 9.93424 39.2891 9.93424 39.2891C8.84249 36.4448 7.26945 35.6885 7.26945 35.6885C5.09191 34.1613 7.43359 34.1926 7.43359 34.1926C9.84363 34.3662 11.1126 36.7285 11.1126 36.7285C13.2532 40.4904 16.7272 39.4028 18.0967 38.7741C18.3121 37.1836 18.9341 36.0981 19.6205 35.4836C14.2897 34.8613 8.6859 32.7513 8.6859 23.3224C8.6859 20.6358 9.62345 18.4406 11.1587 16.7174C10.9095 16.0976 10.088 13.5947 11.3912 10.2052C11.3912 10.2052 13.4066 9.54386 17.993 12.7276C19.9074 12.1824 21.9606 11.9089 24.0002 11.8996C26.0398 11.9089 28.0946 12.1824 30.0126 12.7276C34.5934 9.54386 36.606 10.2052 36.606 10.2052C37.9124 13.5947 37.0905 16.0976 36.8413 16.7174C38.3801 18.4406 39.3113 20.6358 39.3113 23.3224C39.3113 32.7737 33.6968 34.8548 28.3525 35.464C29.2133 36.2276 29.9804 37.7252 29.9804 40.021C29.9804 43.3135 29.9526 45.9634 29.9526 46.7739C29.9526 47.4288 30.3846 48.1961 31.6011 47.9544C41.132 44.697 48 35.4762 48 24.6076C48 11.0169 37.2546 0 24.0002 0" fill="white"/>
<path d="M9.16085 35.1624C9.10809 35.2835 8.92085 35.3198 8.75027 35.2367C8.57652 35.1572 8.47893 34.9922 8.53526 34.8707C8.58683 34.746 8.77447 34.7113 8.94782 34.7949C9.12197 34.8743 9.22115 35.041 9.16085 35.1624" fill="white"/>
<path d="M10.1312 36.263C10.0169 36.3707 9.79358 36.3207 9.64205 36.1504C9.48535 35.9806 9.456 35.7534 9.57183 35.6441C9.68965 35.5363 9.90624 35.5868 10.0633 35.7566C10.22 35.9285 10.2506 36.1541 10.1312 36.263" fill="white"/>
<path d="M11.0757 37.6662C10.929 37.7699 10.689 37.6726 10.5406 37.456C10.3938 37.2393 10.3938 36.9795 10.5438 36.8754C10.6925 36.7713 10.929 36.8649 11.0793 37.0799C11.2257 37.3002 11.2257 37.5601 11.0757 37.6662" fill="white"/>
<path d="M12.3698 39.0219C12.2385 39.1692 11.9588 39.1297 11.7541 38.9287C11.5446 38.7322 11.4863 38.4534 11.618 38.3062C11.7509 38.1585 12.0322 38.2001 12.2385 38.3994C12.4463 38.5955 12.5098 38.8763 12.3698 39.0219" fill="white"/>
<path d="M14.1549 39.809C14.097 39.9999 13.8276 40.0866 13.5563 40.0055C13.2853 39.922 13.108 39.6985 13.1628 39.5056C13.2191 39.3136 13.4896 39.2232 13.763 39.3099C14.0335 39.393 14.2112 39.6149 14.1549 39.809" fill="white"/>
<path d="M16.1152 39.9552C16.122 40.1561 15.8919 40.3228 15.6071 40.3264C15.3207 40.3329 15.089 40.1703 15.0858 39.9726C15.0858 39.7696 15.3107 39.6046 15.5972 39.5998C15.882 39.5941 16.1152 39.7555 16.1152 39.9552" fill="white"/>
<path d="M17.9397 39.6392C17.9738 39.8353 17.7759 40.0366 17.493 40.0903C17.2149 40.1419 16.9575 40.0209 16.9222 39.8264C16.8877 39.6255 17.0892 39.4241 17.3669 39.3721C17.6501 39.3221 17.9036 39.4399 17.9397 39.6392" fill="white"/>
</svg>
