<svg width="96" height="56" viewBox="0 0 96 56" fill="none" xmlns="http://www.w3.org/2000/svg">
<line x1="25.5" y1="2.5" x2="92.5069" y2="2.5" stroke="#FABB04" stroke-width="5" stroke-linecap="round"/>
<line x1="25.5" y1="53.5" x2="92.5069" y2="53.5" stroke="#FABB04" stroke-width="5" stroke-linecap="round"/>
<path d="M6.336 37.264C4.496 37.264 3.168 36.696 2.352 35.56C1.552 34.408 1.152 32.752 1.152 30.592V24.064C1.152 21.84 1.568 20.168 2.4 19.048C3.232 17.912 4.664 17.344 6.696 17.344C8.616 17.344 9.992 17.824 10.824 18.784C11.656 19.728 12.072 21.136 12.072 23.008V24.016H8.688V22.912C8.688 22.208 8.64 21.648 8.544 21.232C8.464 20.816 8.28 20.496 7.992 20.272C7.72 20.048 7.304 19.936 6.744 19.936C6.152 19.936 5.712 20.08 5.424 20.368C5.136 20.656 4.944 21.024 4.848 21.472C4.768 21.92 4.728 22.504 4.728 23.224V31.36C4.728 32.464 4.872 33.288 5.16 33.832C5.464 34.376 6.024 34.648 6.84 34.648C7.64 34.648 8.192 34.36 8.496 33.784C8.816 33.208 8.976 32.344 8.976 31.192V29.368H6.888V27.136H12.168V37H9.864L9.624 35.104C9.016 36.544 7.92 37.264 6.336 37.264ZM18.8543 37.216C17.3663 37.216 16.2543 36.808 15.5183 35.992C14.7823 35.16 14.4143 33.96 14.4143 32.392V27.736C14.4143 26.168 14.7823 24.976 15.5183 24.16C16.2543 23.328 17.3663 22.912 18.8543 22.912C20.3423 22.912 21.4543 23.328 22.1903 24.16C22.9423 24.976 23.3183 26.168 23.3183 27.736V32.392C23.3183 33.96 22.9423 35.16 22.1903 35.992C21.4543 36.808 20.3423 37.216 18.8543 37.216ZM18.8783 34.96C19.3743 34.96 19.7023 34.768 19.8623 34.384C20.0223 33.984 20.1023 33.4 20.1023 32.632V27.52C20.1023 26.752 20.0223 26.168 19.8623 25.768C19.7023 25.368 19.3743 25.168 18.8783 25.168C18.3663 25.168 18.0303 25.368 17.8703 25.768C17.7103 26.168 17.6303 26.752 17.6303 27.52V32.632C17.6303 33.4 17.7103 33.984 17.8703 34.384C18.0303 34.768 18.3663 34.96 18.8783 34.96ZM31.6281 17.56H36.4281C38.2681 17.56 39.6761 17.936 40.6521 18.688C41.6281 19.44 42.1161 20.728 42.1161 22.552C42.1161 23.736 41.8761 24.664 41.3961 25.336C40.9161 25.992 40.2201 26.392 39.3081 26.536C41.5481 26.968 42.6681 28.568 42.6681 31.336C42.6681 33.208 42.2121 34.624 41.3001 35.584C40.3881 36.528 39.0361 37 37.2441 37H31.6281V17.56ZM36.3801 25.504C37.4041 25.504 38.1001 25.28 38.4681 24.832C38.8521 24.368 39.0441 23.624 39.0441 22.6C39.0441 21.608 38.7961 20.936 38.3001 20.584C37.8201 20.216 37.0121 20.032 35.8761 20.032H35.1561V25.504H36.3801ZM36.5241 34.504C37.5641 34.504 38.2841 34.256 38.6841 33.76C39.0841 33.264 39.2841 32.448 39.2841 31.312C39.2841 30.144 39.0601 29.296 38.6121 28.768C38.1801 28.224 37.4441 27.952 36.4041 27.952H35.1561V34.504H36.5241ZM47.4594 37.216C46.8674 37.216 46.3394 37.056 45.8754 36.736C45.4274 36.416 45.0754 36.008 44.8194 35.512C44.5794 35 44.4594 34.472 44.4594 33.928C44.4594 32.856 44.7074 31.976 45.2034 31.288C45.7154 30.584 46.3394 30.04 47.0754 29.656C47.8274 29.272 48.8194 28.848 50.0514 28.384V27.184C50.0514 26.544 49.9714 26.08 49.8114 25.792C49.6674 25.488 49.3794 25.336 48.9474 25.336C48.2114 25.336 47.8274 25.848 47.7954 26.872L47.7474 27.712L44.6514 27.592C44.6994 25.992 45.0914 24.816 45.8274 24.064C46.5794 23.296 47.7074 22.912 49.2114 22.912C50.5714 22.912 51.5794 23.288 52.2354 24.04C52.8914 24.776 53.2194 25.824 53.2194 27.184V33.592C53.2194 34.584 53.2994 35.72 53.4594 37H50.5314C50.3714 36.136 50.2594 35.472 50.1954 35.008C50.0034 35.632 49.6754 36.16 49.2114 36.592C48.7634 37.008 48.1794 37.216 47.4594 37.216ZM48.6594 34.792C48.9314 34.792 49.1874 34.696 49.4274 34.504C49.6834 34.312 49.8914 34.104 50.0514 33.88V29.992C49.2034 30.488 48.5714 30.968 48.1554 31.432C47.7394 31.88 47.5314 32.448 47.5314 33.136C47.5314 33.648 47.6274 34.056 47.8194 34.36C48.0274 34.648 48.3074 34.792 48.6594 34.792ZM59.799 37.216C58.247 37.216 57.119 36.784 56.415 35.92C55.711 35.04 55.359 33.784 55.359 32.152V27.976C55.359 26.328 55.711 25.072 56.415 24.208C57.119 23.344 58.247 22.912 59.799 22.912C61.271 22.912 62.343 23.264 63.015 23.968C63.703 24.672 64.047 25.744 64.047 27.184V28.336H60.975V27.112C60.975 26.392 60.887 25.896 60.711 25.624C60.551 25.352 60.255 25.216 59.823 25.216C59.359 25.216 59.039 25.384 58.863 25.72C58.703 26.056 58.623 26.672 58.623 27.568V32.656C58.623 33.52 58.711 34.112 58.887 34.432C59.079 34.752 59.391 34.912 59.823 34.912C60.271 34.912 60.575 34.768 60.735 34.48C60.895 34.176 60.975 33.696 60.975 33.04V31.552H64.047V32.872C64.047 34.296 63.703 35.376 63.015 36.112C62.327 36.848 61.255 37.216 59.799 37.216ZM66.2648 17.536H69.5048V28.72L73.0568 23.128H76.6328L73.1528 28.696L76.5608 37H73.1288L70.6088 30.16L69.5048 31.696V36.976H66.2648V17.536Z" fill="#FABB04"/>
</svg>
