<svg width="48" height="48" viewBox="0 0 48 48" fill="none" xmlns="http://www.w3.org/2000/svg">
<path d="M0 24C0 10.7452 10.7452 0 24 0C37.2548 0 48 10.7452 48 24C48 37.2548 37.2548 48 24 48C10.7452 48 0 37.2548 0 24Z" fill="white"/>
<mask id="mask0_280_1563" style="mask-type:alpha" maskUnits="userSpaceOnUse" x="0" y="0" width="48" height="48">
<path fill-rule="evenodd" clip-rule="evenodd" d="M0 24C0 10.7452 10.7452 0 24 0C37.2548 0 48 10.7452 48 24C48 37.2548 37.2548 48 24 48C10.7452 48 0 37.2548 0 24Z" fill="white"/>
</mask>
<g mask="url(#mask0_280_1563)">
<path fill-rule="evenodd" clip-rule="evenodd" d="M24.0013 11.2C20.525 11.2 20.0887 11.2152 18.7234 11.2773C17.3607 11.3397 16.4305 11.5554 15.6167 11.872C14.7748 12.1989 14.0606 12.6362 13.3492 13.348C12.6372 14.0594 12.1998 14.7736 11.8718 15.6152C11.5545 16.4293 11.3385 17.3598 11.2771 18.7219C11.2161 20.0872 11.2001 20.5238 11.2001 24.0001C11.2001 27.4764 11.2155 27.9113 11.2774 29.2767C11.3401 30.6394 11.5558 31.5695 11.8721 32.3834C12.1993 33.2253 12.6366 33.9394 13.3484 34.6509C14.0596 35.3629 14.7737 35.8013 15.6151 36.1282C16.4295 36.4448 17.3599 36.6605 18.7223 36.7229C20.0876 36.785 20.5236 36.8002 23.9997 36.8002C27.4762 36.8002 27.9112 36.785 29.2765 36.7229C30.6392 36.6605 31.5704 36.4448 32.3848 36.1282C33.2264 35.8013 33.9395 35.3629 34.6507 34.6509C35.3627 33.9394 35.8001 33.2253 36.1281 32.3836C36.4427 31.5695 36.6587 30.6391 36.7227 29.2769C36.7841 27.9116 36.8001 27.4764 36.8001 24.0001C36.8001 20.5238 36.7841 20.0875 36.7227 18.7222C36.6587 17.3595 36.4427 16.4293 36.1281 15.6155C35.8001 14.7736 35.3627 14.0594 34.6507 13.348C33.9387 12.636 33.2267 12.1986 32.384 11.872C31.568 11.5554 30.6373 11.3397 29.2747 11.2773C27.9093 11.2152 27.4746 11.2 23.9973 11.2H24.0013ZM23.5743 13.5065H23.5746L24.0012 13.5066C27.4189 13.5066 27.8239 13.5189 29.1736 13.5802C30.4216 13.6373 31.0989 13.8458 31.5501 14.021C32.1475 14.253 32.5733 14.5304 33.0211 14.9784C33.4691 15.4264 33.7464 15.8531 33.9789 16.4504C34.1541 16.9011 34.3629 17.5784 34.4197 18.8264C34.4811 20.1758 34.4944 20.5811 34.4944 23.9971C34.4944 27.4132 34.4811 27.8185 34.4197 29.1679C34.3627 30.4159 34.1541 31.0932 33.9789 31.5439C33.7469 32.1412 33.4691 32.5666 33.0211 33.0143C32.5731 33.4623 32.1477 33.7396 31.5501 33.9716C31.0994 34.1476 30.4216 34.3556 29.1736 34.4127C27.8242 34.474 27.4189 34.4874 24.0012 34.4874C20.5833 34.4874 20.1783 34.474 18.8289 34.4127C17.5809 34.3551 16.9036 34.1466 16.4521 33.9714C15.8547 33.7394 15.4281 33.462 14.9801 33.014C14.5321 32.566 14.2547 32.1404 14.0222 31.5428C13.847 31.0921 13.6382 30.4148 13.5814 29.1668C13.5201 27.8174 13.5078 27.4121 13.5078 23.9939C13.5078 20.5758 13.5201 20.1726 13.5814 18.8232C13.6385 17.5752 13.847 16.8979 14.0222 16.4467C14.2542 15.8493 14.5321 15.4227 14.9801 14.9746C15.4281 14.5266 15.8547 14.2493 16.4521 14.0168C16.9033 13.8408 17.5809 13.6328 18.8289 13.5754C20.0097 13.5221 20.4673 13.5061 22.853 13.5034V13.5066C23.0758 13.5063 23.3156 13.5064 23.5743 13.5065ZM29.2978 17.1675C29.2978 16.3192 29.9858 15.632 30.8338 15.632V15.6314C31.6819 15.6314 32.3699 16.3195 32.3699 17.1675C32.3699 18.0155 31.6819 18.7035 30.8338 18.7035C29.9858 18.7035 29.2978 18.0155 29.2978 17.1675ZM24.001 17.4268C20.371 17.4269 17.4279 20.3701 17.4279 24.0002C17.4279 27.6303 20.3711 30.5722 24.0013 30.5722C27.6315 30.5722 30.5736 27.6303 30.5736 24.0002C30.5736 20.37 27.6312 17.4268 24.001 17.4268ZM28.268 24.0002C28.268 21.6436 26.3576 19.7335 24.0013 19.7335C21.6448 19.7335 19.7346 21.6436 19.7346 24.0002C19.7346 26.3565 21.6448 28.2669 24.0013 28.2669C26.3576 28.2669 28.268 26.3565 28.268 24.0002Z" fill="#EA4235"/>
</g>
</svg>
