<svg width="48" height="48" viewBox="0 0 48 48" fill="none" xmlns="http://www.w3.org/2000/svg">
<path fill-rule="evenodd" clip-rule="evenodd" d="M24 0C10.7452 0 0 10.7452 0 24C0 37.2548 10.7452 48 24 48C37.2548 48 48 37.2548 48 24C48 10.7452 37.2548 0 24 0ZM11.5217 19.8778H16.9606V36.2195H11.5217V19.8778ZM17.3186 14.8227C17.2833 13.2204 16.1375 12 14.2769 12C12.4163 12 11.1999 13.2204 11.1999 14.8227C11.1999 16.3918 12.3803 17.6473 14.2063 17.6473H14.2411C16.1375 17.6473 17.3186 16.3918 17.3186 14.8227ZM30.3134 19.4941C33.8924 19.4941 36.5756 21.8302 36.5756 26.8497L36.5754 36.2196H31.1367V27.4767C31.1367 25.2807 30.3497 23.7822 28.3807 23.7822C26.8781 23.7822 25.9831 24.7924 25.59 25.7681C25.4462 26.1178 25.4109 26.605 25.4109 27.0934V36.22H19.9713C19.9713 36.22 20.043 21.4117 19.9713 19.8783H25.4109V22.1929C26.1328 21.0802 27.4257 19.4941 30.3134 19.4941Z" fill="#4286F5"/>
</svg>
