<svg width="48" height="48" viewBox="0 0 48 48" fill="none" xmlns="http://www.w3.org/2000/svg">
<path d="M24 48C37.2548 48 48 37.2548 48 24C48 10.7452 37.2548 0 24 0C10.7452 0 0 10.7452 0 24C0 37.2548 10.7452 48 24 48Z" fill="white"/>
<path fill-rule="evenodd" clip-rule="evenodd" d="M12.7999 17.1753C12.7999 17.1753 22.4594 22.6529 24.3343 22.6529C26.2994 22.6529 35.8543 17.2799 35.8543 17.2799L35.8697 16.3199C35.8697 15.2601 35.0095 14.3999 33.9468 14.3999H14.7218C13.6601 14.3999 12.7999 15.2601 12.7999 16.3199V17.1753ZM35.8543 20.16C35.8543 20.16 26.3897 25.293 24.3343 25.293C22.4594 25.293 12.8143 20.16 12.8153 20.16L12.7999 31.68C12.7999 32.7398 13.661 33.6 14.7218 33.6H33.9468C35.0095 33.6 35.8697 32.7398 35.8697 31.68L35.8543 20.16Z" fill="#FABB04"/>
</svg>
