<svg width="48" height="48" viewBox="0 0 48 48" fill="none" xmlns="http://www.w3.org/2000/svg">
<circle cx="24" cy="24" r="24" fill="#FABB04"/>
<path d="M15.174 21.8059C15.2674 21.5819 15.4214 21.4699 15.636 21.4699C15.776 21.4699 15.902 21.5166 16.014 21.6099C16.126 21.7032 16.182 21.8199 16.182 21.9599C16.182 22.0252 16.168 22.0952 16.14 22.1699L13.816 28.0499C13.76 28.1712 13.676 28.2692 13.564 28.3439C13.4614 28.4092 13.3447 28.4419 13.214 28.4419C13.0927 28.4419 12.976 28.4092 12.864 28.3439C12.7614 28.2692 12.682 28.1712 12.626 28.0499L10.694 23.1359L8.77605 28.0499C8.72938 28.1712 8.65005 28.2692 8.53805 28.3439C8.42605 28.4092 8.30472 28.4419 8.17405 28.4419C8.05272 28.4419 7.93605 28.4092 7.82405 28.3439C7.71205 28.2692 7.62805 28.1712 7.57205 28.0499L5.24805 22.1839C5.22005 22.1092 5.20605 22.0439 5.20605 21.9879C5.20605 21.8386 5.26672 21.7126 5.38805 21.6099C5.51872 21.5072 5.65872 21.4559 5.80805 21.4559C6.03205 21.4559 6.19072 21.5679 6.28405 21.7919L8.20205 26.9579L10.176 21.8339C10.232 21.7126 10.3067 21.6192 10.4 21.5539C10.5027 21.4886 10.61 21.4559 10.722 21.4559C10.8434 21.4559 10.9507 21.4886 11.044 21.5539C11.1467 21.6192 11.2214 21.7126 11.268 21.8339L13.242 26.9439L15.174 21.8059ZM26.9592 21.8059C27.0525 21.5819 27.2065 21.4699 27.4212 21.4699C27.5612 21.4699 27.6872 21.5166 27.7992 21.6099C27.9112 21.7032 27.9672 21.8199 27.9672 21.9599C27.9672 22.0252 27.9532 22.0952 27.9252 22.1699L25.6012 28.0499C25.5452 28.1712 25.4612 28.2692 25.3492 28.3439C25.2465 28.4092 25.1299 28.4419 24.9992 28.4419C24.8779 28.4419 24.7612 28.4092 24.6492 28.3439C24.5465 28.2692 24.4672 28.1712 24.4112 28.0499L22.4792 23.1359L20.5612 28.0499C20.5145 28.1712 20.4352 28.2692 20.3232 28.3439C20.2112 28.4092 20.0899 28.4419 19.9592 28.4419C19.8379 28.4419 19.7212 28.4092 19.6092 28.3439C19.4972 28.2692 19.4132 28.1712 19.3572 28.0499L17.0332 22.1839C17.0052 22.1092 16.9912 22.0439 16.9912 21.9879C16.9912 21.8386 17.0519 21.7126 17.1732 21.6099C17.3039 21.5072 17.4439 21.4559 17.5932 21.4559C17.8172 21.4559 17.9759 21.5679 18.0692 21.7919L19.9872 26.9579L21.9612 21.8339C22.0172 21.7126 22.0919 21.6192 22.1852 21.5539C22.2879 21.4886 22.3952 21.4559 22.5072 21.4559C22.6285 21.4559 22.7359 21.4886 22.8292 21.5539C22.9319 21.6192 23.0065 21.7126 23.0532 21.8339L25.0272 26.9439L26.9592 21.8059ZM38.7444 21.8059C38.8377 21.5819 38.9917 21.4699 39.2064 21.4699C39.3464 21.4699 39.4724 21.5166 39.5844 21.6099C39.6964 21.7032 39.7524 21.8199 39.7524 21.9599C39.7524 22.0252 39.7384 22.0952 39.7104 22.1699L37.3864 28.0499C37.3304 28.1712 37.2464 28.2692 37.1344 28.3439C37.0317 28.4092 36.915 28.4419 36.7844 28.4419C36.663 28.4419 36.5464 28.4092 36.4344 28.3439C36.3317 28.2692 36.2524 28.1712 36.1964 28.0499L34.2644 23.1359L32.3464 28.0499C32.2997 28.1712 32.2204 28.2692 32.1084 28.3439C31.9964 28.4092 31.875 28.4419 31.7444 28.4419C31.623 28.4419 31.5064 28.4092 31.3944 28.3439C31.2824 28.2692 31.1984 28.1712 31.1424 28.0499L28.8184 22.1839C28.7904 22.1092 28.7764 22.0439 28.7764 21.9879C28.7764 21.8386 28.837 21.7126 28.9584 21.6099C29.089 21.5072 29.229 21.4559 29.3784 21.4559C29.6024 21.4559 29.761 21.5679 29.8544 21.7919L31.7724 26.9579L33.7464 21.8339C33.8024 21.7126 33.877 21.6192 33.9704 21.5539C34.073 21.4886 34.1804 21.4559 34.2924 21.4559C34.4137 21.4559 34.521 21.4886 34.6144 21.5539C34.717 21.6192 34.7917 21.7126 34.8384 21.8339L36.8124 26.9439L38.7444 21.8059ZM41.2597 28.4699C41.0357 28.4699 40.849 28.3999 40.6997 28.2599C40.5503 28.1106 40.4757 27.9192 40.4757 27.6859C40.4757 27.4526 40.5503 27.2612 40.6997 27.1119C40.849 26.9626 41.0357 26.8879 41.2597 26.8879C41.4743 26.8879 41.6517 26.9626 41.7917 27.1119C41.941 27.2612 42.0157 27.4526 42.0157 27.6859C42.0157 27.9192 41.941 28.1106 41.7917 28.2599C41.6517 28.3999 41.4743 28.4699 41.2597 28.4699Z" fill="#4286F5"/>
</svg>
